<mxfile host="app.diagrams.net" modified="2023-12-02T03:32:34.051Z" agent="Mozilla/5.0 (Windows NT 10.0; Win64; x64) AppleWebKit/537.36 (KHTML, like Gecko) Chrome/104.0.0.0 Safari/537.36" etag="brdk3Fi8cu7QUrLdWf-k" version="22.1.5" type="device">
  <diagram id="C5RBs43oDa-KdzZeNtuy" name="Page-1">
    <mxGraphModel dx="1050" dy="581" grid="1" gridSize="10" guides="1" tooltips="1" connect="1" arrows="1" fold="1" page="1" pageScale="1" pageWidth="827" pageHeight="1169" math="0" shadow="0">
      <root>
        <mxCell id="WIyWlLk6GJQsqaUBKTNV-0" />
        <mxCell id="WIyWlLk6GJQsqaUBKTNV-1" parent="WIyWlLk6GJQsqaUBKTNV-0" />
        <mxCell id="VrYUrm6GTN_86s7Eb4Qg-0" value="" style="edgeStyle=orthogonalEdgeStyle;rounded=0;orthogonalLoop=1;jettySize=auto;html=1;" edge="1" parent="WIyWlLk6GJQsqaUBKTNV-1" source="WIyWlLk6GJQsqaUBKTNV-3" target="1_PeUKzKMtI_XJAJoonI-23">
          <mxGeometry relative="1" as="geometry" />
        </mxCell>
        <mxCell id="WIyWlLk6GJQsqaUBKTNV-3" value="Create New Box" style="rounded=1;whiteSpace=wrap;html=1;fontSize=12;glass=0;strokeWidth=1;shadow=0;" parent="WIyWlLk6GJQsqaUBKTNV-1" vertex="1">
          <mxGeometry x="160" y="280" width="120" height="40" as="geometry" />
        </mxCell>
        <mxCell id="VrYUrm6GTN_86s7Eb4Qg-3" style="edgeStyle=orthogonalEdgeStyle;rounded=0;orthogonalLoop=1;jettySize=auto;html=1;entryX=0;entryY=0.5;entryDx=0;entryDy=0;" edge="1" parent="WIyWlLk6GJQsqaUBKTNV-1" source="WIyWlLk6GJQsqaUBKTNV-6" target="WIyWlLk6GJQsqaUBKTNV-3">
          <mxGeometry relative="1" as="geometry">
            <Array as="points">
              <mxPoint x="120" y="520" />
              <mxPoint x="120" y="300" />
            </Array>
          </mxGeometry>
        </mxCell>
        <mxCell id="VrYUrm6GTN_86s7Eb4Qg-5" value="Yes" style="edgeLabel;html=1;align=center;verticalAlign=middle;resizable=0;points=[];" vertex="1" connectable="0" parent="VrYUrm6GTN_86s7Eb4Qg-3">
          <mxGeometry x="-0.8684" y="-1" relative="1" as="geometry">
            <mxPoint x="-4" y="1" as="offset" />
          </mxGeometry>
        </mxCell>
        <mxCell id="VrYUrm6GTN_86s7Eb4Qg-8" value="" style="edgeStyle=orthogonalEdgeStyle;rounded=0;orthogonalLoop=1;jettySize=auto;html=1;" edge="1" parent="WIyWlLk6GJQsqaUBKTNV-1" source="WIyWlLk6GJQsqaUBKTNV-6" target="VrYUrm6GTN_86s7Eb4Qg-6">
          <mxGeometry relative="1" as="geometry" />
        </mxCell>
        <mxCell id="VrYUrm6GTN_86s7Eb4Qg-9" value="No" style="edgeLabel;html=1;align=center;verticalAlign=middle;resizable=0;points=[];" vertex="1" connectable="0" parent="VrYUrm6GTN_86s7Eb4Qg-8">
          <mxGeometry x="-0.19" relative="1" as="geometry">
            <mxPoint as="offset" />
          </mxGeometry>
        </mxCell>
        <mxCell id="WIyWlLk6GJQsqaUBKTNV-6" value="Need a &lt;br&gt;New Box?" style="rhombus;whiteSpace=wrap;html=1;shadow=0;fontFamily=Helvetica;fontSize=12;align=center;strokeWidth=1;spacing=6;spacingTop=-4;" parent="WIyWlLk6GJQsqaUBKTNV-1" vertex="1">
          <mxGeometry x="170" y="480" width="100" height="80" as="geometry" />
        </mxCell>
        <mxCell id="1_PeUKzKMtI_XJAJoonI-8" value="" style="edgeStyle=orthogonalEdgeStyle;rounded=0;orthogonalLoop=1;jettySize=auto;html=1;" parent="WIyWlLk6GJQsqaUBKTNV-1" source="1_PeUKzKMtI_XJAJoonI-0" target="WIyWlLk6GJQsqaUBKTNV-3" edge="1">
          <mxGeometry relative="1" as="geometry" />
        </mxCell>
        <mxCell id="1_PeUKzKMtI_XJAJoonI-0" value="Start" style="ellipse;whiteSpace=wrap;html=1;" parent="WIyWlLk6GJQsqaUBKTNV-1" vertex="1">
          <mxGeometry x="180" y="190" width="80" height="50" as="geometry" />
        </mxCell>
        <mxCell id="1_PeUKzKMtI_XJAJoonI-6" value="" style="edgeStyle=orthogonalEdgeStyle;rounded=0;orthogonalLoop=1;jettySize=auto;html=1;" parent="WIyWlLk6GJQsqaUBKTNV-1" source="1_PeUKzKMtI_XJAJoonI-1" target="1_PeUKzKMtI_XJAJoonI-2" edge="1">
          <mxGeometry relative="1" as="geometry" />
        </mxCell>
        <mxCell id="1_PeUKzKMtI_XJAJoonI-1" value="Assign New Tray &lt;br&gt;into the Box" style="rounded=1;whiteSpace=wrap;html=1;fontSize=12;glass=0;strokeWidth=1;shadow=0;" parent="WIyWlLk6GJQsqaUBKTNV-1" vertex="1">
          <mxGeometry x="320" y="360" width="120" height="40" as="geometry" />
        </mxCell>
        <mxCell id="1_PeUKzKMtI_XJAJoonI-7" value="" style="edgeStyle=orthogonalEdgeStyle;rounded=0;orthogonalLoop=1;jettySize=auto;html=1;" parent="WIyWlLk6GJQsqaUBKTNV-1" source="1_PeUKzKMtI_XJAJoonI-2" target="1_PeUKzKMtI_XJAJoonI-3" edge="1">
          <mxGeometry relative="1" as="geometry" />
        </mxCell>
        <mxCell id="1_PeUKzKMtI_XJAJoonI-2" value="Assign New Lot&lt;br&gt;into the Tray" style="rounded=1;whiteSpace=wrap;html=1;fontSize=12;glass=0;strokeWidth=1;shadow=0;" parent="WIyWlLk6GJQsqaUBKTNV-1" vertex="1">
          <mxGeometry x="480" y="360" width="120" height="40" as="geometry" />
        </mxCell>
        <mxCell id="_5mp6oneuePxIlQ1IFAd-1" style="edgeStyle=orthogonalEdgeStyle;rounded=0;orthogonalLoop=1;jettySize=auto;html=1;entryX=1;entryY=0.5;entryDx=0;entryDy=0;exitX=0.5;exitY=1;exitDx=0;exitDy=0;" parent="WIyWlLk6GJQsqaUBKTNV-1" source="1_PeUKzKMtI_XJAJoonI-3" target="1_PeUKzKMtI_XJAJoonI-17" edge="1">
          <mxGeometry relative="1" as="geometry" />
        </mxCell>
        <mxCell id="1_PeUKzKMtI_XJAJoonI-3" value="Assign Lot Qty&lt;br&gt;into the Lot" style="rounded=1;whiteSpace=wrap;html=1;fontSize=12;glass=0;strokeWidth=1;shadow=0;" parent="WIyWlLk6GJQsqaUBKTNV-1" vertex="1">
          <mxGeometry x="640" y="360" width="120" height="40" as="geometry" />
        </mxCell>
        <mxCell id="1_PeUKzKMtI_XJAJoonI-13" value="Yes" style="edgeStyle=orthogonalEdgeStyle;rounded=0;orthogonalLoop=1;jettySize=auto;html=1;" parent="WIyWlLk6GJQsqaUBKTNV-1" source="1_PeUKzKMtI_XJAJoonI-4" target="1_PeUKzKMtI_XJAJoonI-1" edge="1">
          <mxGeometry relative="1" as="geometry" />
        </mxCell>
        <mxCell id="1_PeUKzKMtI_XJAJoonI-14" value="No" style="edgeStyle=orthogonalEdgeStyle;rounded=0;orthogonalLoop=1;jettySize=auto;html=1;entryX=1;entryY=0.5;entryDx=0;entryDy=0;" parent="WIyWlLk6GJQsqaUBKTNV-1" source="1_PeUKzKMtI_XJAJoonI-4" target="WIyWlLk6GJQsqaUBKTNV-6" edge="1">
          <mxGeometry relative="1" as="geometry" />
        </mxCell>
        <mxCell id="1_PeUKzKMtI_XJAJoonI-4" value="Need a &lt;br&gt;New Tray?" style="rhombus;whiteSpace=wrap;html=1;shadow=0;fontFamily=Helvetica;fontSize=12;align=center;strokeWidth=1;spacing=6;spacingTop=-4;" parent="WIyWlLk6GJQsqaUBKTNV-1" vertex="1">
          <mxGeometry x="330" y="480" width="100" height="80" as="geometry" />
        </mxCell>
        <mxCell id="1_PeUKzKMtI_XJAJoonI-15" value="End" style="ellipse;whiteSpace=wrap;html=1;" parent="WIyWlLk6GJQsqaUBKTNV-1" vertex="1">
          <mxGeometry x="480" y="615" width="80" height="50" as="geometry" />
        </mxCell>
        <mxCell id="1_PeUKzKMtI_XJAJoonI-18" value="" style="edgeStyle=orthogonalEdgeStyle;rounded=0;orthogonalLoop=1;jettySize=auto;html=1;" parent="WIyWlLk6GJQsqaUBKTNV-1" source="1_PeUKzKMtI_XJAJoonI-17" target="1_PeUKzKMtI_XJAJoonI-4" edge="1">
          <mxGeometry relative="1" as="geometry" />
        </mxCell>
        <mxCell id="1_PeUKzKMtI_XJAJoonI-19" value="No" style="edgeLabel;html=1;align=center;verticalAlign=middle;resizable=0;points=[];" parent="1_PeUKzKMtI_XJAJoonI-18" vertex="1" connectable="0">
          <mxGeometry x="-0.1267" y="2" relative="1" as="geometry">
            <mxPoint as="offset" />
          </mxGeometry>
        </mxCell>
        <mxCell id="1_PeUKzKMtI_XJAJoonI-20" value="" style="edgeStyle=orthogonalEdgeStyle;rounded=0;orthogonalLoop=1;jettySize=auto;html=1;" parent="WIyWlLk6GJQsqaUBKTNV-1" source="1_PeUKzKMtI_XJAJoonI-17" target="1_PeUKzKMtI_XJAJoonI-2" edge="1">
          <mxGeometry relative="1" as="geometry" />
        </mxCell>
        <mxCell id="1_PeUKzKMtI_XJAJoonI-21" value="Yes" style="edgeLabel;html=1;align=center;verticalAlign=middle;resizable=0;points=[];" parent="1_PeUKzKMtI_XJAJoonI-20" vertex="1" connectable="0">
          <mxGeometry x="-0.255" y="3" relative="1" as="geometry">
            <mxPoint as="offset" />
          </mxGeometry>
        </mxCell>
        <mxCell id="1_PeUKzKMtI_XJAJoonI-17" value="Need a &lt;br&gt;New Lot?" style="rhombus;whiteSpace=wrap;html=1;shadow=0;fontFamily=Helvetica;fontSize=12;align=center;strokeWidth=1;spacing=6;spacingTop=-4;" parent="WIyWlLk6GJQsqaUBKTNV-1" vertex="1">
          <mxGeometry x="490" y="480" width="100" height="80" as="geometry" />
        </mxCell>
        <mxCell id="VrYUrm6GTN_86s7Eb4Qg-2" style="edgeStyle=orthogonalEdgeStyle;rounded=0;orthogonalLoop=1;jettySize=auto;html=1;entryX=0;entryY=0.5;entryDx=0;entryDy=0;" edge="1" parent="WIyWlLk6GJQsqaUBKTNV-1" source="1_PeUKzKMtI_XJAJoonI-23" target="1_PeUKzKMtI_XJAJoonI-1">
          <mxGeometry relative="1" as="geometry" />
        </mxCell>
        <mxCell id="1_PeUKzKMtI_XJAJoonI-23" value="Assign Shipdoc&lt;br&gt;into the Box" style="rounded=1;whiteSpace=wrap;html=1;fontSize=12;glass=0;strokeWidth=1;shadow=0;" parent="WIyWlLk6GJQsqaUBKTNV-1" vertex="1">
          <mxGeometry x="160" y="360" width="120" height="40" as="geometry" />
        </mxCell>
        <mxCell id="47lEi0kerC_UpEnarVsY-0" value="&lt;i&gt;&lt;font style=&quot;font-size: 10px;&quot;&gt;&lt;u style=&quot;&quot;&gt;&lt;b&gt;Note: &lt;/b&gt;&lt;/u&gt;&lt;br&gt;Tray Qty cannot exceed box_max_tray&lt;/font&gt;&lt;/i&gt;" style="text;html=1;strokeColor=none;fillColor=none;align=left;verticalAlign=middle;whiteSpace=wrap;rounded=0;" parent="WIyWlLk6GJQsqaUBKTNV-1" vertex="1">
          <mxGeometry x="320" y="310" width="120" height="50" as="geometry" />
        </mxCell>
        <mxCell id="47lEi0kerC_UpEnarVsY-1" value="&lt;i&gt;&lt;font style=&quot;font-size: 10px;&quot;&gt;&lt;u style=&quot;&quot;&gt;&lt;b&gt;Note: &lt;/b&gt;&lt;/u&gt;&lt;br&gt;Lot Qty cannot exceed tray_max_drive&lt;/font&gt;&lt;/i&gt;" style="text;html=1;strokeColor=none;fillColor=none;align=left;verticalAlign=middle;whiteSpace=wrap;rounded=0;" parent="WIyWlLk6GJQsqaUBKTNV-1" vertex="1">
          <mxGeometry x="480" y="310" width="120" height="50" as="geometry" />
        </mxCell>
        <mxCell id="47lEi0kerC_UpEnarVsY-2" value="&lt;p style=&quot;line-height: 120%;&quot;&gt;&lt;i&gt;&lt;font style=&quot;font-size: 10px;&quot;&gt;&lt;u style=&quot;&quot;&gt;&lt;b&gt;Note: &lt;/b&gt;&lt;/u&gt;&lt;br&gt;Upon shipped, box_status changed from &#39;active&#39; to &#39;shipped&#39;&lt;br&gt;&lt;/font&gt;&lt;/i&gt;&lt;/p&gt;" style="text;html=1;strokeColor=none;fillColor=none;align=left;verticalAlign=middle;whiteSpace=wrap;rounded=0;" parent="WIyWlLk6GJQsqaUBKTNV-1" vertex="1">
          <mxGeometry x="320" y="650" width="200" height="71" as="geometry" />
        </mxCell>
        <mxCell id="47lEi0kerC_UpEnarVsY-7" value="" style="edgeStyle=orthogonalEdgeStyle;rounded=0;orthogonalLoop=1;jettySize=auto;html=1;" parent="WIyWlLk6GJQsqaUBKTNV-1" source="47lEi0kerC_UpEnarVsY-6" target="1_PeUKzKMtI_XJAJoonI-15" edge="1">
          <mxGeometry relative="1" as="geometry" />
        </mxCell>
        <mxCell id="47lEi0kerC_UpEnarVsY-6" value="Ship Box" style="rounded=1;whiteSpace=wrap;html=1;fontSize=12;glass=0;strokeWidth=1;shadow=0;" parent="WIyWlLk6GJQsqaUBKTNV-1" vertex="1">
          <mxGeometry x="320" y="620" width="120" height="40" as="geometry" />
        </mxCell>
        <mxCell id="VrYUrm6GTN_86s7Eb4Qg-7" value="" style="edgeStyle=orthogonalEdgeStyle;rounded=0;orthogonalLoop=1;jettySize=auto;html=1;" edge="1" parent="WIyWlLk6GJQsqaUBKTNV-1" source="VrYUrm6GTN_86s7Eb4Qg-6" target="47lEi0kerC_UpEnarVsY-6">
          <mxGeometry relative="1" as="geometry" />
        </mxCell>
        <mxCell id="VrYUrm6GTN_86s7Eb4Qg-10" value="Yes" style="edgeLabel;html=1;align=center;verticalAlign=middle;resizable=0;points=[];" vertex="1" connectable="0" parent="VrYUrm6GTN_86s7Eb4Qg-7">
          <mxGeometry x="-0.04" relative="1" as="geometry">
            <mxPoint x="-1" y="-1" as="offset" />
          </mxGeometry>
        </mxCell>
        <mxCell id="VrYUrm6GTN_86s7Eb4Qg-6" value="Box &lt;br&gt;Shippable?" style="rhombus;whiteSpace=wrap;html=1;shadow=0;fontFamily=Helvetica;fontSize=12;align=center;strokeWidth=1;spacing=6;spacingTop=-4;" vertex="1" parent="WIyWlLk6GJQsqaUBKTNV-1">
          <mxGeometry x="170" y="600" width="100" height="80" as="geometry" />
        </mxCell>
        <mxCell id="VrYUrm6GTN_86s7Eb4Qg-11" value="&lt;i&gt;&lt;font style=&quot;font-size: 10px;&quot;&gt;&lt;u style=&quot;&quot;&gt;&lt;b&gt;Note: &lt;/b&gt;&lt;/u&gt;&lt;br&gt;Box cannot be shipped if &lt;br&gt;tray count = 0 or drive qty = 0.&lt;br&gt;&lt;/font&gt;&lt;/i&gt;" style="text;html=1;strokeColor=none;fillColor=none;align=left;verticalAlign=middle;whiteSpace=wrap;rounded=0;" vertex="1" parent="WIyWlLk6GJQsqaUBKTNV-1">
          <mxGeometry x="40" y="610" width="150" height="50" as="geometry" />
        </mxCell>
        <mxCell id="VrYUrm6GTN_86s7Eb4Qg-12" value="&lt;i style=&quot;border-color: var(--border-color); color: rgb(0, 0, 0); font-family: Helvetica; font-size: 12px; font-variant-ligatures: normal; font-variant-caps: normal; font-weight: 400; letter-spacing: normal; orphans: 2; text-align: left; text-indent: 0px; text-transform: none; widows: 2; word-spacing: 0px; -webkit-text-stroke-width: 0px; background-color: rgb(251, 251, 251); text-decoration-thickness: initial; text-decoration-style: initial; text-decoration-color: initial;&quot;&gt;&lt;font style=&quot;border-color: var(--border-color); font-size: 10px;&quot;&gt;Shipped Box can be traced in History&lt;/font&gt;&lt;/i&gt;" style="text;whiteSpace=wrap;html=1;" vertex="1" parent="WIyWlLk6GJQsqaUBKTNV-1">
          <mxGeometry x="320" y="710" width="200" height="30" as="geometry" />
        </mxCell>
      </root>
    </mxGraphModel>
  </diagram>
</mxfile>
